<mxfile host="65bd71144e" scale="3" border="0">
    <diagram id="K9VSB4vWv1Qad1v9RGPc" name="Page-1">
        <mxGraphModel dx="605" dy="475" grid="0" gridSize="1" guides="1" tooltips="1" connect="1" arrows="1" fold="1" page="1" pageScale="1" pageWidth="1600" pageHeight="1200" background="#ffffff" math="0" shadow="0">
            <root>
                <mxCell id="0"/>
                <mxCell id="1" parent="0"/>
                <mxCell id="2" value="Project main" style="swimlane;fontStyle=0;childLayout=stackLayout;horizontal=1;startSize=30;horizontalStack=0;resizeParent=1;resizeParentMax=0;resizeLast=0;collapsible=1;marginBottom=0;whiteSpace=wrap;html=1;fontColor=#000000;labelBackgroundColor=none;labelBorderColor=none;strokeColor=#000000;fontSize=20;" parent="1" vertex="1">
                    <mxGeometry x="95.30973451327434" y="280.49738219895283" width="228.5840707964602" height="879.7774869109946" as="geometry"/>
                </mxCell>
                <mxCell id="3" value="folder : admin" style="text;strokeColor=#000000;fillColor=none;align=left;verticalAlign=middle;spacingLeft=4;spacingRight=4;overflow=hidden;points=[[0,0.5],[1,0.5]];portConstraint=eastwest;rotatable=0;whiteSpace=wrap;html=1;fontColor=#000000;labelBackgroundColor=none;labelBorderColor=none;fontSize=20;" parent="2" vertex="1">
                    <mxGeometry y="30" width="228.5840707964602" height="44.72513089005234" as="geometry"/>
                </mxCell>
                <mxCell id="8" value="folder : Purchasing" style="text;strokeColor=#000000;fillColor=none;align=left;verticalAlign=middle;spacingLeft=4;spacingRight=4;overflow=hidden;points=[[0,0.5],[1,0.5]];portConstraint=eastwest;rotatable=0;whiteSpace=wrap;html=1;fontColor=#000000;labelBackgroundColor=none;labelBorderColor=none;fontSize=20;" parent="2" vertex="1">
                    <mxGeometry y="74.72513089005234" width="228.5840707964602" height="44.72513089005234" as="geometry"/>
                </mxCell>
                <mxCell id="9" value="folder : report" style="text;strokeColor=#000000;fillColor=none;align=left;verticalAlign=middle;spacingLeft=4;spacingRight=4;overflow=hidden;points=[[0,0.5],[1,0.5]];portConstraint=eastwest;rotatable=0;whiteSpace=wrap;html=1;fontColor=#000000;labelBackgroundColor=none;labelBorderColor=none;fontSize=20;" parent="2" vertex="1">
                    <mxGeometry y="119.45026178010468" width="228.5840707964602" height="44.72513089005234" as="geometry"/>
                </mxCell>
                <mxCell id="10" value="folder : vendor" style="text;strokeColor=#000000;fillColor=none;align=left;verticalAlign=middle;spacingLeft=4;spacingRight=4;overflow=hidden;points=[[0,0.5],[1,0.5]];portConstraint=eastwest;rotatable=0;whiteSpace=wrap;html=1;fontColor=#000000;labelBackgroundColor=none;labelBorderColor=none;fontSize=20;" parent="2" vertex="1">
                    <mxGeometry y="164.175392670157" width="228.5840707964602" height="44.72513089005234" as="geometry"/>
                </mxCell>
                <mxCell id="11" value="&lt;div style=&quot;font-size: 20px;&quot;&gt;file php :&lt;/div&gt;&lt;div style=&quot;font-size: 20px;&quot;&gt;approve_po.php&lt;/div&gt;&lt;div style=&quot;font-size: 20px;&quot;&gt;cancel_po.php&lt;/div&gt;&lt;div style=&quot;font-size: 20px;&quot;&gt;composer.json&lt;/div&gt;&lt;div style=&quot;font-size: 20px;&quot;&gt;composer.lock&lt;/div&gt;&lt;div style=&quot;font-size: 20px;&quot;&gt;config.php&lt;/div&gt;&lt;div style=&quot;font-size: 20px;&quot;&gt;withdrawUser.php&lt;/div&gt;&lt;div style=&quot;font-size: 20px;&quot;&gt;dashboard.php&lt;/div&gt;&lt;div style=&quot;font-size: 20px;&quot;&gt;delete_po_item.php&lt;/div&gt;&lt;div style=&quot;font-size: 20px;&quot;&gt;display_report.php&lt;/div&gt;&lt;div style=&quot;font-size: 20px;&quot;&gt;edit_po.php&lt;/div&gt;&lt;div style=&quot;font-size: 20px;&quot;&gt;generate_pdf.php&lt;/div&gt;&lt;div style=&quot;font-size: 20px;&quot;&gt;generate_po_number.php&lt;/div&gt;&lt;div style=&quot;font-size: 20px;&quot;&gt;get_po_by_status.php&lt;/div&gt;&lt;div style=&quot;font-size: 20px;&quot;&gt;get_po_details.php&lt;/div&gt;&lt;div style=&quot;font-size: 20px;&quot;&gt;index.php&lt;/div&gt;&lt;div style=&quot;font-size: 20px;&quot;&gt;logout.php&lt;/div&gt;&lt;div style=&quot;font-size: 20px;&quot;&gt;page-report.php&lt;/div&gt;&lt;div style=&quot;font-size: 20px;&quot;&gt;php&lt;/div&gt;&lt;div style=&quot;font-size: 20px;&quot;&gt;preview_pdf.php&lt;/div&gt;&lt;div style=&quot;font-size: 20px;&quot;&gt;README.md&lt;/div&gt;&lt;div style=&quot;font-size: 20px;&quot;&gt;readme.txt&lt;/div&gt;&lt;div style=&quot;font-size: 20px;&quot;&gt;register.php&lt;/div&gt;&lt;div style=&quot;font-size: 20px;&quot;&gt;search_items.php&lt;/div&gt;&lt;div style=&quot;font-size: 20px;&quot;&gt;submit_po_items.php&lt;/div&gt;&lt;div style=&quot;font-size: 20px;&quot;&gt;สำรองแดชบอด.php&lt;/div&gt;" style="text;strokeColor=#000000;fillColor=none;align=left;verticalAlign=middle;spacingLeft=4;spacingRight=4;overflow=hidden;points=[[0,0.5],[1,0.5]];portConstraint=eastwest;rotatable=0;whiteSpace=wrap;html=1;fontColor=#000000;labelBackgroundColor=none;labelBorderColor=none;fontSize=20;" parent="2" vertex="1">
                    <mxGeometry y="208.90052356020936" width="228.5840707964602" height="670.8769633507853" as="geometry"/>
                </mxCell>
                <mxCell id="6" value="&lt;h1 style=&quot;font-size: 20px;&quot;&gt;FlowChat Diagram&lt;/h1&gt;&lt;p style=&quot;font-size: 20px;&quot;&gt;พื้นฐานเว็บเบิกยา เขียนขึ้นโดยใช้โคด php เพื่อเป็นการเข้าใจที่ง่าย โครงสร้างไฟล์ .php แต่ละโฟล์เดอร์ประกอบด้วยไฟล์พื้นฐานดังนี้&lt;/p&gt;" style="text;html=1;strokeColor=none;fillColor=none;spacing=5;spacingTop=-20;whiteSpace=wrap;overflow=hidden;rounded=0;fontColor=#000000;labelBackgroundColor=none;labelBorderColor=none;fontSize=20;" parent="1" vertex="1">
                    <mxGeometry x="30" y="41.96335078534031" width="375.5309734513275" height="178.90052356020936" as="geometry"/>
                </mxCell>
                <mxCell id="12" style="edgeStyle=none;html=1;entryX=0.011;entryY=0.027;entryDx=0;entryDy=0;entryPerimeter=0;exitX=1;exitY=0.5;exitDx=0;exitDy=0;fontColor=#000000;labelBackgroundColor=none;labelBorderColor=none;strokeColor=#000000;fontSize=20;" parent="1" source="3" target="13" edge="1">
                    <mxGeometry relative="1" as="geometry">
                        <mxPoint x="454.513274336283" y="347.58507853403137" as="targetPoint"/>
                        <Array as="points">
                            <mxPoint x="438" y="331"/>
                            <mxPoint x="438.18584070796464" y="86.68848167539267"/>
                        </Array>
                    </mxGeometry>
                </mxCell>
                <mxCell id="13" value="&lt;span style=&quot;&quot;&gt;admin&lt;/span&gt;" style="swimlane;fontStyle=0;childLayout=stackLayout;horizontal=1;startSize=30;horizontalStack=0;resizeParent=1;resizeParentMax=0;resizeLast=0;collapsible=1;marginBottom=0;whiteSpace=wrap;html=1;fontColor=#000000;labelBackgroundColor=none;labelBorderColor=none;strokeColor=#000000;fontSize=20;" parent="1" vertex="1">
                    <mxGeometry x="1466.8141592920354" y="71.78010471204188" width="408.18584070796464" height="581.609947643979" as="geometry"/>
                </mxCell>
                <mxCell id="14" value="foleder :&amp;nbsp;admin\AdminReport" style="text;strokeColor=#000000;fillColor=none;align=left;verticalAlign=middle;spacingLeft=4;spacingRight=4;overflow=hidden;points=[[0,0.5],[1,0.5]];portConstraint=eastwest;rotatable=0;whiteSpace=wrap;html=1;fontColor=#000000;labelBackgroundColor=none;labelBorderColor=none;fontSize=20;" parent="13" vertex="1">
                    <mxGeometry y="30" width="408.18584070796464" height="44.725130890052334" as="geometry"/>
                </mxCell>
                <mxCell id="15" value="follder :&amp;nbsp;admin\getjavascript" style="text;strokeColor=#000000;fillColor=none;align=left;verticalAlign=middle;spacingLeft=4;spacingRight=4;overflow=hidden;points=[[0,0.5],[1,0.5]];portConstraint=eastwest;rotatable=0;whiteSpace=wrap;html=1;perimeterSpacing=0;fontColor=#000000;labelBackgroundColor=none;labelBorderColor=none;fontSize=20;" parent="13" vertex="1">
                    <mxGeometry y="74.72513089005233" width="408.18584070796464" height="44.725130890052334" as="geometry"/>
                </mxCell>
                <mxCell id="16" value="admin_register.php&#10;admin_withdraw.php&#10;admin.dashboard.php&#10;admin.report.php&#10;approve_po.php&#10;cancel_po.php&#10;dasboardrequest copy.php&#10;dasboardrequest.php&#10;download_pdf.php&#10;generate_pdfforgporequest copy.php&#10;generate_pdfforgporequest.php&#10;get_po_by_status.php&#10;markPending.php&#10;nav.php&#10;withdraw.php" style="text;strokeColor=#000000;fillColor=none;align=left;verticalAlign=middle;spacingLeft=4;spacingRight=4;overflow=hidden;points=[[0,0.5],[1,0.5]];portConstraint=eastwest;rotatable=0;spacingBottom=0;labelBackgroundColor=none;fontColor=#000000;fontFamily=Helvetica;labelBorderColor=none;fontSize=20;" parent="13" vertex="1">
                    <mxGeometry y="119.45026178010465" width="408.18584070796464" height="462.1596858638743" as="geometry"/>
                </mxCell>
                <mxCell id="18" value="" style="image;html=1;image=img/lib/clip_art/general/Full_Folder_128x128.png;fontColor=#000000;labelBackgroundColor=none;labelBorderColor=none;strokeColor=#000000;fontSize=20;" parent="1" vertex="1">
                    <mxGeometry x="46.32743362831859" y="250.6806282722513" width="81.63716814159291" height="74.5418848167539" as="geometry"/>
                </mxCell>
                <mxCell id="19" value="" style="image;html=1;image=img/lib/clip_art/general/Full_Folder_128x128.png;fontColor=#000000;labelBackgroundColor=none;labelBorderColor=none;strokeColor=#000000;fontSize=20;" parent="1" vertex="1">
                    <mxGeometry x="46.32743362831859" y="325.22251308900525" width="48.982300884955755" height="29.816753926701566" as="geometry"/>
                </mxCell>
                <mxCell id="24" value="" style="image;html=1;image=img/lib/clip_art/general/Full_Folder_128x128.png;fontColor=#000000;labelBackgroundColor=none;labelBorderColor=none;strokeColor=#000000;fontSize=20;" parent="1" vertex="1">
                    <mxGeometry x="46.32743362831859" y="369.9476439790576" width="48.982300884955755" height="29.816753926701566" as="geometry"/>
                </mxCell>
                <mxCell id="25" value="" style="image;html=1;image=img/lib/clip_art/general/Full_Folder_128x128.png;fontColor=#000000;labelBackgroundColor=none;labelBorderColor=none;strokeColor=#000000;fontSize=20;" parent="1" vertex="1">
                    <mxGeometry x="46.32743362831859" y="414.6727748691099" width="48.982300884955755" height="29.816753926701566" as="geometry"/>
                </mxCell>
                <mxCell id="26" value="" style="image;html=1;image=img/lib/clip_art/general/Full_Folder_128x128.png;fontColor=#000000;labelBackgroundColor=none;labelBorderColor=none;strokeColor=#000000;fontSize=20;" parent="1" vertex="1">
                    <mxGeometry x="46.32743362831859" y="459.39790575916226" width="48.982300884955755" height="29.816753926701566" as="geometry"/>
                </mxCell>
                <mxCell id="27" value="" style="image;html=1;image=img/lib/clip_art/general/Full_Folder_128x128.png;fontColor=#000000;labelBackgroundColor=none;labelBorderColor=none;strokeColor=#000000;fontSize=20;" parent="1" vertex="1">
                    <mxGeometry x="46.32743362831859" y="459.39790575916226" width="48.982300884955755" height="29.816753926701566" as="geometry"/>
                </mxCell>
                <mxCell id="29" value="" style="image;html=1;image=img/lib/clip_art/general/Full_Folder_128x128.png;fontColor=#000000;labelBackgroundColor=none;labelBorderColor=none;strokeColor=#000000;fontSize=20;" parent="1" vertex="1">
                    <mxGeometry x="1401.5044247787612" y="116.50523560209423" width="48.982300884955755" height="29.816753926701566" as="geometry"/>
                </mxCell>
                <mxCell id="55" style="edgeStyle=none;html=1;exitX=0;exitY=0.5;exitDx=0;exitDy=0;fontFamily=Helvetica;fontSize=20;fontColor=#000000;labelBackgroundColor=none;labelBorderColor=none;strokeColor=#000000;" parent="1" source="30" edge="1">
                    <mxGeometry relative="1" as="geometry">
                        <mxPoint x="1303.5398230088495" y="861.9240837696334" as="targetPoint"/>
                        <Array as="points">
                            <mxPoint x="1401.5044247787612" y="861.9240837696334"/>
                        </Array>
                    </mxGeometry>
                </mxCell>
                <mxCell id="30" value="" style="image;html=1;image=img/lib/clip_art/general/Full_Folder_128x128.png;fontColor=#000000;labelBackgroundColor=none;labelBorderColor=none;strokeColor=#000000;fontSize=20;" parent="1" vertex="1">
                    <mxGeometry x="1401.5044247787612" y="161.23036649214657" width="48.982300884955755" height="29.816753926701566" as="geometry"/>
                </mxCell>
                <mxCell id="31" value="&lt;span style=&quot;text-align: left; font-size: 20px;&quot;&gt;Purchasing&lt;/span&gt;" style="swimlane;fontStyle=0;childLayout=stackLayout;horizontal=1;startSize=30;horizontalStack=0;resizeParent=1;resizeParentMax=0;resizeLast=0;collapsible=1;marginBottom=0;whiteSpace=wrap;html=1;fontColor=#000000;labelBackgroundColor=none;labelBorderColor=none;strokeColor=#000000;fontSize=20;" parent="1" vertex="1">
                    <mxGeometry x="518.1902654867256" y="235.7722513089005" width="328.1814159292036" height="372.892670157068" as="geometry"/>
                </mxCell>
                <mxCell id="32" value="folder : report_generators" style="text;strokeColor=#000000;fillColor=none;align=left;verticalAlign=middle;spacingLeft=4;spacingRight=4;overflow=hidden;points=[[0,0.5],[1,0.5]];portConstraint=eastwest;rotatable=0;whiteSpace=wrap;html=1;fontColor=#000000;labelBackgroundColor=none;labelBorderColor=none;fontSize=20;" parent="31" vertex="1">
                    <mxGeometry y="30" width="328.1814159292036" height="44.72513089005234" as="geometry"/>
                </mxCell>
                <mxCell id="33" value="&lt;div style=&quot;font-size: 20px;&quot;&gt;file PHP&lt;/div&gt;&lt;div style=&quot;font-size: 20px;&quot;&gt;composer.json&lt;/div&gt;&lt;div style=&quot;font-size: 20px;&quot;&gt;composer.lock&lt;/div&gt;&lt;div style=&quot;font-size: 20px;&quot;&gt;duplicates.php&lt;/div&gt;&lt;div style=&quot;font-size: 20px;&quot;&gt;generate_report.php&lt;/div&gt;&lt;div style=&quot;font-size: 20px;&quot;&gt;indexPurchasing.php&lt;/div&gt;&lt;div style=&quot;font-size: 20px;&quot;&gt;logo.png&lt;/div&gt;&lt;div style=&quot;font-size: 20px;&quot;&gt;process.php&lt;/div&gt;" style="text;strokeColor=#000000;fillColor=none;align=left;verticalAlign=middle;spacingLeft=4;spacingRight=4;overflow=hidden;points=[[0,0.5],[1,0.5]];portConstraint=eastwest;rotatable=0;whiteSpace=wrap;html=1;fontColor=#000000;labelBackgroundColor=none;labelBorderColor=none;fontSize=20;" parent="31" vertex="1">
                    <mxGeometry y="74.72513089005234" width="328.1814159292036" height="298.1675392670156" as="geometry"/>
                </mxCell>
                <mxCell id="35" style="edgeStyle=none;html=1;entryX=0;entryY=0;entryDx=0;entryDy=0;fontColor=#000000;labelBackgroundColor=none;labelBorderColor=none;strokeColor=#000000;fontSize=20;" parent="1" source="8" target="31" edge="1">
                    <mxGeometry relative="1" as="geometry">
                        <Array as="points">
                            <mxPoint x="471" y="375"/>
                            <mxPoint x="470.8407079646018" y="235.7722513089005"/>
                        </Array>
                    </mxGeometry>
                </mxCell>
                <mxCell id="36" value="" style="image;html=1;image=img/lib/clip_art/general/Full_Folder_128x128.png;fontColor=#000000;labelBackgroundColor=none;labelBorderColor=none;strokeColor=#000000;fontSize=20;" parent="1" vertex="1">
                    <mxGeometry x="469.20796460177" y="284.969895287958" width="48.982300884955755" height="29.816753926701566" as="geometry"/>
                </mxCell>
                <mxCell id="37" value="&lt;div style=&quot;text-align: left; font-size: 20px;&quot;&gt;&lt;span style=&quot;font-size: 20px;&quot;&gt;report&lt;/span&gt;&lt;/div&gt;" style="swimlane;fontStyle=0;childLayout=stackLayout;horizontal=1;startSize=30;horizontalStack=0;resizeParent=1;resizeParentMax=0;resizeLast=0;collapsible=1;marginBottom=0;whiteSpace=wrap;html=1;fontColor=#000000;labelBackgroundColor=none;labelBorderColor=none;strokeColor=#000000;fontSize=20;" parent="1" vertex="1">
                    <mxGeometry x="438.18584070796464" y="712.8403141361255" width="408.18584070796464" height="208.90052356020936" as="geometry"/>
                </mxCell>
                <mxCell id="38" value="all_combined_report.php&#10;all_purchases_report.php&#10;cancelled_report.php&#10;date_range_report.php&#10;medicine_report.php&#10;po_number_report.php&#10;search_drug_list.php" style="text;strokeColor=#000000;fillColor=none;align=left;verticalAlign=middle;spacingLeft=4;spacingRight=4;overflow=hidden;points=[[0,0.5],[1,0.5]];portConstraint=eastwest;rotatable=0;fontColor=#000000;labelBackgroundColor=none;labelBorderColor=none;fontSize=20;" parent="37" vertex="1">
                    <mxGeometry y="30" width="408.18584070796464" height="178.90052356020936" as="geometry"/>
                </mxCell>
                <mxCell id="40" value="" style="edgeStyle=none;exitX=1;exitY=0.5;exitDx=0;exitDy=0;entryX=0;entryY=0;entryDx=0;entryDy=0;fontColor=#000000;labelBackgroundColor=none;labelBorderColor=none;spacing=2;html=1;fontSize=20;strokeColor=#000000;" parent="1" source="9" target="37" edge="1">
                    <mxGeometry relative="1" as="geometry">
                        <Array as="points">
                            <mxPoint x="437" y="422"/>
                            <mxPoint x="438.18584070796464" y="653.2068062827224"/>
                        </Array>
                    </mxGeometry>
                </mxCell>
                <mxCell id="41" value="&lt;div style=&quot;text-align: left; font-size: 20px;&quot;&gt;&lt;span style=&quot;font-size: 20px;&quot;&gt;report_generators&lt;/span&gt;&lt;/div&gt;" style="swimlane;fontStyle=0;childLayout=stackLayout;horizontal=1;startSize=30;horizontalStack=0;resizeParent=1;resizeParentMax=0;resizeLast=0;collapsible=1;marginBottom=0;whiteSpace=wrap;html=1;fontColor=#000000;labelBackgroundColor=none;labelBorderColor=none;strokeColor=#000000;fontSize=20;" parent="1" vertex="1">
                    <mxGeometry x="893.7212389380533" y="235.7722513089005" width="328.1814159292036" height="238.71727748691094" as="geometry"/>
                </mxCell>
                <mxCell id="42" value="generate_notepdf.php&#10;generate_pdf.php&#10;generate_purchase_pdf.php&#10;generate_purchase_word.php&#10;generate_word.php" style="text;strokeColor=#000000;fillColor=none;align=left;verticalAlign=middle;spacingLeft=4;spacingRight=4;overflow=hidden;points=[[0,0.5],[1,0.5]];portConstraint=eastwest;rotatable=0;fontColor=#000000;labelBackgroundColor=none;labelBorderColor=none;fontSize=20;" parent="41" vertex="1">
                    <mxGeometry y="30" width="328.1814159292036" height="208.71727748691094" as="geometry"/>
                </mxCell>
                <mxCell id="44" value="&lt;span style=&quot;text-align: left; font-size: 20px;&quot;&gt;AdminReport&lt;/span&gt;" style="swimlane;fontStyle=0;childLayout=stackLayout;horizontal=1;startSize=30;horizontalStack=0;resizeParent=1;resizeParentMax=0;resizeLast=0;collapsible=1;marginBottom=0;whiteSpace=wrap;html=1;fontColor=#000000;labelBackgroundColor=none;labelBorderColor=none;strokeColor=#000000;fontSize=20;" parent="1" vertex="1">
                    <mxGeometry x="893.7212389380533" y="578.6649214659685" width="408.18584070796464" height="193.9921465968586" as="geometry"/>
                </mxCell>
                <mxCell id="45" value="admin_cancelled_report.php&#10;admin_date_range_report.php&#10;admin_medicine_report.php&#10;admin_po_number_report.php&#10;all_combined_report.php&#10;all_purchases_report.php" style="text;strokeColor=#000000;fillColor=none;align=left;verticalAlign=middle;spacingLeft=4;spacingRight=4;overflow=hidden;points=[[0,0.5],[1,0.5]];portConstraint=eastwest;rotatable=0;fontColor=#000000;labelBackgroundColor=none;labelBorderColor=none;fontSize=20;" parent="44" vertex="1">
                    <mxGeometry y="30" width="408.18584070796464" height="163.9921465968586" as="geometry"/>
                </mxCell>
                <mxCell id="51" value="&lt;span style=&quot;text-align: left; font-size: 20px;&quot;&gt;getjavascript&lt;/span&gt;" style="swimlane;fontStyle=0;childLayout=stackLayout;horizontal=1;startSize=30;horizontalStack=0;resizeParent=1;resizeParentMax=0;resizeLast=0;collapsible=1;marginBottom=0;whiteSpace=wrap;html=1;fontColor=#000000;labelBackgroundColor=none;labelBorderColor=none;strokeColor=#000000;fontSize=20;" parent="1" vertex="1">
                    <mxGeometry x="893.7212389380533" y="832.1073298429319" width="408.19" height="97" as="geometry"/>
                </mxCell>
                <mxCell id="52" value="adminget_po_by_status.php" style="text;strokeColor=#000000;fillColor=none;align=left;verticalAlign=middle;spacingLeft=4;spacingRight=4;overflow=hidden;points=[[0,0.5],[1,0.5]];portConstraint=eastwest;rotatable=0;fontColor=#000000;labelBackgroundColor=none;labelBorderColor=none;fontSize=20;" parent="51" vertex="1">
                    <mxGeometry y="30" width="408.19" height="67" as="geometry"/>
                </mxCell>
                <mxCell id="54" style="edgeStyle=none;html=1;fontFamily=Helvetica;fontSize=20;fontColor=#000000;entryX=1;entryY=0.097;entryDx=0;entryDy=0;entryPerimeter=0;labelBackgroundColor=none;labelBorderColor=none;strokeColor=#000000;" parent="1" source="29" target="44" edge="1">
                    <mxGeometry relative="1" as="geometry">
                        <Array as="points">
                            <mxPoint x="1352.5221238938054" y="131.41361256544502"/>
                            <mxPoint x="1352.5221238938054" y="599.5366492146595"/>
                        </Array>
                    </mxGeometry>
                </mxCell>
                <mxCell id="53" style="edgeStyle=none;html=1;exitX=1;exitY=0.5;exitDx=0;exitDy=0;entryX=0.002;entryY=0.109;entryDx=0;entryDy=0;entryPerimeter=0;fontFamily=Helvetica;fontSize=20;fontColor=#000000;labelBackgroundColor=none;labelBorderColor=none;strokeColor=#000000;" parent="1" source="32" target="42" edge="1">
                    <mxGeometry relative="1" as="geometry"/>
                </mxCell>
                <mxCell id="57" value="" style="image;html=1;image=img/lib/clip_art/general/Full_Folder_128x128.png;fontColor=#000000;labelBackgroundColor=none;labelBorderColor=none;strokeColor=#000000;fontSize=20;" parent="1" vertex="1">
                    <mxGeometry x="488.8008849557522" y="205.95549738219893" width="81.63716814159291" height="74.5418848167539" as="geometry"/>
                </mxCell>
                <mxCell id="58" value="" style="image;html=1;image=img/lib/clip_art/general/Full_Folder_128x128.png;fontColor=#000000;labelBackgroundColor=none;labelBorderColor=none;strokeColor=#000000;fontSize=20;" parent="1" vertex="1">
                    <mxGeometry x="854.5353982300885" y="205.95549738219893" width="81.63716814159291" height="74.5418848167539" as="geometry"/>
                </mxCell>
                <mxCell id="62" value="" style="image;html=1;image=img/lib/clip_art/general/Full_Folder_128x128.png;fontColor=#000000;labelBackgroundColor=none;labelBorderColor=none;strokeColor=#000000;fontSize=20;" parent="1" vertex="1">
                    <mxGeometry x="1290.4778761061948" y="36" width="408.18584070796464" height="74.5418848167539" as="geometry"/>
                </mxCell>
                <mxCell id="65" value="" style="image;html=1;image=img/lib/clip_art/general/Full_Folder_128x128.png;fontColor=#000000;labelBackgroundColor=none;labelBorderColor=none;strokeColor=#000000;fontSize=20;" parent="1" vertex="1">
                    <mxGeometry x="854.5353982300885" y="548.1027486910995" width="81.63716814159291" height="74.5418848167539" as="geometry"/>
                </mxCell>
                <mxCell id="66" value="" style="image;html=1;image=img/lib/clip_art/general/Full_Folder_128x128.png;fontColor=#000000;labelBackgroundColor=none;labelBorderColor=none;strokeColor=#000000;fontSize=20;" parent="1" vertex="1">
                    <mxGeometry x="415.32743362831866" y="683.0235602094241" width="81.63716814159291" height="74.5418848167539" as="geometry"/>
                </mxCell>
                <mxCell id="67" value="" style="image;html=1;image=img/lib/clip_art/general/Full_Folder_128x128.png;fontColor=#000000;labelBackgroundColor=none;labelBorderColor=none;strokeColor=#000000;fontSize=20;" parent="1" vertex="1">
                    <mxGeometry x="849.637168141593" y="802.2905759162302" width="81.63716814159291" height="74.5418848167539" as="geometry"/>
                </mxCell>
            </root>
        </mxGraphModel>
    </diagram>
</mxfile>